{
  "accessors": [
    {
      "bufferView": 3,
      "componentType": 5126,
      "count": 144,
      "max": [
        1.5136574506759644,
        4.2428579330444336,
        -6.3214583396911621
      ],
      "min": [
        -1.5136572122573853,
        4.1382589340209961,
        -6.3977985382080078
      ],
      "type": "VEC3"
    },
    {
      "bufferView": 3,
      "byteOffset": 1728,
      "componentType": 5126,
      "count": 144,
      "max": [
        1,
        0.99983221292495728,
        0.84264248609542847
      ],
      "min": [
        -1,
        -0.9998357892036438,
        -0.84264248609542847
      ],
      "type": "VEC3"
    },
    {
      "bufferView": 4,
      "componentType": 5126,
      "count": 144,
      "max": [
        0.99995654821395874,
        0.9874834418296814,
        0.99560916423797607,
        1
      ],
      "min": [
        -0.99879777431488037,
        -0.98198235034942627,
        -0.85327935218811035,
        -1
      ],
      "type": "VEC4"
    },
    {
      "bufferView": 2,
      "componentType": 5126,
      "count": 144,
      "max": [
        0.60207879543304443,
        0.79430532455444336
      ],
      "min": [
        -0.56624162197113037,
        -0.32636156678199768
      ],
      "type": "VEC2"
    },
    {
      "bufferView": 1,
      "componentType": 5125,
      "count": 360,
      "max": [
        143
      ],
      "min": [
        0
      ],
      "type": "SCALAR"
    },
    {
      "bufferView": 3,
      "byteOffset": 3456,
      "componentType": 5126,
      "count": 136,
      "max": [
        1.522836446762085,
        4.3348426818847656,
        -6.3722362518310547
      ],
      "min": [
        -1.5228356122970581,
        4.2154135704040527,
        -6.4251699447631836
      ],
      "type": "VEC3"
    },
    {
      "bufferView": 3,
      "byteOffset": 5088,
      "componentType": 5126,
      "count": 136,
      "max": [
        1,
        0.99551612138748169,
        0.3965628445148468
      ],
      "min": [
        -1,
        -0.99552363157272339,
        -0.39691898226737976
      ],
      "type": "VEC3"
    },
    {
      "bufferView": 4,
      "byteOffset": 2304,
      "componentType": 5126,
      "count": 136,
      "max": [
        1,
        0.9752957820892334,
        0.97013521194458008,
        1
      ],
      "min": [
        -0.26002156734466553,
        -0.95874607563018799,
        -0.96969354152679443,
        -1
      ],
      "type": "VEC4"
    },
    {
      "bufferView": 2,
      "byteOffset": 1152,
      "componentType": 5126,
      "count": 136,
      "max": [
        0.77846038341522217,
        0.88523918390274048
      ],
      "min": [
        -0.62987720966339111,
        -0.84718132019042969
      ],
      "type": "VEC2"
    },
    {
      "bufferView": 1,
      "byteOffset": 1440,
      "componentType": 5125,
      "count": 360,
      "max": [
        135
      ],
      "min": [
        0
      ],
      "type": "SCALAR"
    },
    {
      "bufferView": 3,
      "byteOffset": 6720,
      "componentType": 5126,
      "count": 5857,
      "max": [
        3.2087748050689697,
        32.136810302734375,
        7.2883763313293457
      ],
      "min": [
        -3.2087748050689697,
        27.889183044433594,
        -7.4432415962219238
      ],
      "type": "VEC3"
    },
    {
      "bufferView": 3,
      "byteOffset": 77004,
      "componentType": 5126,
      "count": 5857,
      "max": [
        1,
        0.99993383884429932,
        1
      ],
      "min": [
        -1,
        -1,
        -1
      ],
      "type": "VEC3"
    },
    {
      "bufferView": 2,
      "byteOffset": 2240,
      "componentType": 5126,
      "count": 5857,
      "max": [
        2.253103494644165,
        2.9271211624145508
      ],
      "min": [
        -4.4877505302429199,
        -0.38763061165809631
      ],
      "type": "VEC2"
    },
    {
      "bufferView": 1,
      "byteOffset": 2880,
      "componentType": 5125,
      "count": 16515,
      "max": [
        5853
      ],
      "min": [
        0
      ],
      "type": "SCALAR"
    },
    {
      "bufferView": 3,
      "byteOffset": 147288,
      "componentType": 5126,
      "count": 132,
      "max": [
        2.707960844039917,
        28.342502593994141,
        7.3305215835571289
      ],
      "min": [
        -2.707960844039917,
        28.074413299560547,
        6.0199251174926758
      ],
      "type": "VEC3"
    },
    {
      "bufferView": 3,
      "byteOffset": 148872,
      "componentType": 5126,
      "count": 132,
      "max": [
        0.7311515212059021,
        0.99944877624511719,
        1
      ],
      "min": [
        -0.7311515212059021,
        -0.99990808963775635,
        -0.046199429780244827
      ],
      "type": "VEC3"
    },
    {
      "bufferView": 4,
      "byteOffset": 4480,
      "componentType": 5126,
      "count": 132,
      "max": [
        0.1702587753534317,
        1,
        0.99999839067459106,
        1
      ],
      "min": [
        -0.89548105001449585,
        -0.046204622834920883,
        -0.9994470477104187,
        -1
      ],
      "type": "VEC4"
    },
    {
      "bufferView": 2,
      "byteOffset": 49096,
      "componentType": 5126,
      "count": 132,
      "max": [
        0.065822400152683258,
        0.14686477184295654
      ],
      "min": [
        0.04539605975151062,
        0.11823786795139313
      ],
      "type": "VEC2"
    },
    {
      "bufferView": 1,
      "byteOffset": 68940,
      "componentType": 5125,
      "count": 354,
      "max": [
        131
      ],
      "min": [
        0
      ],
      "type": "SCALAR"
    },
    {
      "bufferView": 3,
      "byteOffset": 150456,
      "componentType": 5126,
      "count": 1360,
      "max": [
        2.7221860885620117,
        31.925445556640625,
        7.2468385696411133
      ],
      "min": [
        -2.7221860885620117,
        28.000011444091797,
        -5.9448270797729492
      ],
      "type": "VEC3"
    },
    {
      "bufferView": 3,
      "byteOffset": 166776,
      "componentType": 5126,
      "count": 1360,
      "max": [
        0.99999803304672241,
        0.99999940395355225,
        0.99994271993637085
      ],
      "min": [
        -0.99999803304672241,
        -0.99999964237213135,
        -0.99710565805435181
      ],
      "type": "VEC3"
    },
    {
      "bufferView": 2,
      "byteOffset": 50152,
      "componentType": 5126,
      "count": 1360,
      "max": [
        1,
        1
      ],
      "min": [
        0,
        0
      ],
      "type": "VEC2"
    },
    {
      "bufferView": 1,
      "byteOffset": 70356,
      "componentType": 5125,
      "count": 3036,
      "max": [
        1359
      ],
      "min": [
        0
      ],
      "type": "SCALAR"
    },
    {
      "bufferView": 3,
      "byteOffset": 183096,
      "componentType": 5126,
      "count": 300,
      "max": [
        0.96545308828353882,
        18.333995819091797,
        3.8529319763183594
      ],
      "min": [
        -0.96541899442672729,
        17.27606201171875,
        2.8561046123504639
      ],
      "type": "VEC3"
    },
    {
      "bufferView": 3,
      "byteOffset": 186696,
      "componentType": 5126,
      "count": 300,
      "max": [
        0.98546409606933594,
        0.99994069337844849,
        0.99994039535522461
      ],
      "min": [
        -0.98565387725830078,
        -0.99994051456451416,
        -0.99994039535522461
      ],
      "type": "VEC3"
    },
    {
      "bufferView": 4,
      "byteOffset": 6592,
      "componentType": 5126,
      "count": 300,
      "max": [
        1,
        0.97825866937637329,
        0.99999994039535522,
        1
      ],
      "min": [
        -1,
        -0.99994039535522461,
        -1,
        1
      ],
      "type": "VEC4"
    },
    {
      "bufferView": 2,
      "byteOffset": 61032,
      "componentType": 5126,
      "count": 300,
      "max": [
        0.99120151996612549,
        0.99501872062683105
      ],
      "min": [
        0.70651102066040039,
        0.12228566408157349
      ],
      "type": "VEC2"
    },
    {
      "bufferView": 1,
      "byteOffset": 82500,
      "componentType": 5125,
      "count": 504,
      "max": [
        299
      ],
      "min": [
        0
      ],
      "type": "SCALAR"
    },
    {
      "bufferView": 3,
      "byteOffset": 190296,
      "componentType": 5126,
      "count": 7106,
      "max": [
        3.1584248542785645,
        29.607582092285156,
        5.3111362457275391
      ],
      "min": [
        -3.1524648666381836,
        27.319240570068359,
        3.0591511726379395
      ],
      "type": "VEC3"
    },
    {
      "bufferView": 3,
      "byteOffset": 275568,
      "componentType": 5126,
      "count": 7106,
      "max": [
        1,
        0.99996829032897949,
        0.99978059530258179
      ],
      "min": [
        -1,
        -0.99997258186340332,
        -1
      ],
      "type": "VEC3"
    },
    {
      "bufferView": 4,
      "byteOffset": 11392,
      "componentType": 5126,
      "count": 7106,
      "max": [
        1,
        1,
        0.99999958276748657,
        1
      ],
      "min": [
        -1,
        -1,
        -1,
        -1
      ],
      "type": "VEC4"
    },
    {
      "bufferView": 2,
      "byteOffset": 63432,
      "componentType": 5126,
      "count": 7106,
      "max": [
        0.99640393257141113,
        0.99475294351577759
      ],
      "min": [
        0.0025050640106201172,
        0.0035047233104705811
      ],
      "type": "VEC2"
    },
    {
      "bufferView": 1,
      "byteOffset": 84516,
      "componentType": 5125,
      "count": 19518,
      "max": [
        7105
      ],
      "min": [
        0
      ],
      "type": "SCALAR"
    },
    {
      "bufferView": 3,
      "byteOffset": 360840,
      "componentType": 5126,
      "count": 516,
      "max": [
        3.1440777778625488,
        29.658973693847656,
        5.3773641586303711
      ],
      "min": [
        -3.138117790222168,
        27.267841339111328,
        2.9929213523864746
      ],
      "type": "VEC3"
    },
    {
      "bufferView": 3,
      "byteOffset": 367032,
      "componentType": 5126,
      "count": 516,
      "max": [
        0.88063544034957886,
        1,
        0.9972042441368103
      ],
      "min": [
        -0.88063544034957886,
        -1,
        -0.99720394611358643
      ],
      "type": "VEC3"
    },
    {
      "bufferView": 2,
      "byteOffset": 120280,
      "componentType": 5126,
      "count": 516,
      "max": [
        0.96660012006759644,
        4.2429399490356445
      ],
      "min": [
        0.0066528879106044769,
        -1.544946551322937
      ],
      "type": "VEC2"
    },
    {
      "bufferView": 1,
      "byteOffset": 162588,
      "componentType": 5125,
      "count": 2016,
      "max": [
        515
      ],
      "min": [
        0
      ],
      "type": "SCALAR"
    },
    {
      "bufferView": 3,
      "byteOffset": 373224,
      "componentType": 5126,
      "count": 6534,
      "max": [
        2.600938081741333,
        31.957164764404297,
        3.6136009693145752
      ],
      "min": [
        -2.5588641166687012,
        28.091472625732422,
        -6.151486873626709
      ],
      "type": "VEC3"
    },
    {
      "bufferView": 3,
      "byteOffset": 451632,
      "componentType": 5126,
      "count": 6534,
      "max": [
        1,
        1,
        0.99838298559188843
      ],
      "min": [
        -0.99999266862869263,
        -0.9999956488609314,
        -0.99972766637802124
      ],
      "type": "VEC3"
    },
    {
      "bufferView": 4,
      "byteOffset": 125088,
      "componentType": 5126,
      "count": 6534,
      "max": [
        1,
        0.99999988079071045,
        0.99999511241912842,
        1
      ],
      "min": [
        -1,
        -0.99998438358306885,
        -1,
        -1
      ],
      "type": "VEC4"
    },
    {
      "bufferView": 2,
      "byteOffset": 124408,
      "componentType": 5126,
      "count": 6534,
      "max": [
        0.99750399589538574,
        0.99931001663208008
      ],
      "min": [
        0.0028560000937432051,
        0.0025329999625682831
      ],
      "type": "VEC2"
    },
    {
      "bufferView": 1,
      "byteOffset": 170652,
      "componentType": 5125,
      "count": 15015,
      "max": [
        6533
      ],
      "min": [
        0
      ],
      "type": "SCALAR"
    },
    {
      "bufferView": 3,
      "byteOffset": 530040,
      "componentType": 5126,
      "count": 24,
      "max": [
        -0.70721518993377686,
        3.7128078937530518,
        7.2580223083496094
      ],
      "min": [
        -1.098737359046936,
        3.6319928169250488,
        7.1250762939453125
      ],
      "type": "VEC3"
    },
    {
      "bufferView": 3,
      "byteOffset": 530328,
      "componentType": 5126,
      "count": 24,
      "max": [
        0.19812901318073273,
        -0.43117412924766541,
        0.88024657964706421
      ],
      "min": [
        0.1981273740530014,
        -0.43117746710777283,
        0.88024479150772095
      ],
      "type": "VEC3"
    },
    {
      "bufferView": 4,
      "byteOffset": 229632,
      "componentType": 5126,
      "count": 24,
      "max": [
        0.0029676281847059727,
        -0.89777988195419312,
        -0.43934568762779236,
        1
      ],
      "min": [
        -0.0030133784748613834,
        -0.89831316471099854,
        -0.44043460488319397,
        1
      ],
      "type": "VEC4"
    },
    {
      "bufferView": 2,
      "byteOffset": 176680,
      "componentType": 5126,
      "count": 24,
      "max": [
        0.49374070763587952,
        0.68270605802536011
      ],
      "min": [
        0.3856157660484314,
        0.3136654794216156
      ],
      "type": "VEC2"
    },
    {
      "bufferView": 1,
      "byteOffset": 230712,
      "componentType": 5125,
      "count": 36,
      "max": [
        23
      ],
      "min": [
        0
      ],
      "type": "SCALAR"
    },
    {
      "bufferView": 3,
      "byteOffset": 530616,
      "componentType": 5126,
      "count": 24,
      "max": [
        -0.70721518993377686,
        3.0698766708374023,
        7.1501617431640625
      ],
      "min": [
        -1.098737359046936,
        2.9890615940093994,
        7.1155295372009277
      ],
      "type": "VEC3"
    },
    {
      "bufferView": 3,
      "byteOffset": 530904,
      "componentType": 5126,
      "count": 24,
      "max": [
        0.036788292229175568,
        0.17737275362014771,
        0.98345649242401123
      ],
      "min": [
        0.036788135766983032,
        0.17736995220184326,
        0.98345589637756348
      ],
      "type": "VEC3"
    },
    {
      "bufferView": 4,
      "byteOffset": 230016,
      "componentType": 5126,
      "count": 24,
      "max": [
        2.0884640434815083e-06,
        -0.98412209749221802,
        0.17749291658401489,
        1
      ],
      "min": [
        -3.9240339333446173e-07,
        -0.98412269353866577,
        0.17749002575874329,
        1
      ],
      "type": "VEC4"
    },
    {
      "bufferView": 2,
      "byteOffset": 176872,
      "componentType": 5126,
      "count": 24,
      "max": [
        0.49374082684516907,
        0.68270635604858398
      ],
      "min": [
        0.38561564683914185,
        0.31366512179374695
      ],
      "type": "VEC2"
    },
    {
      "bufferView": 1,
      "byteOffset": 230856,
      "componentType": 5125,
      "count": 36,
      "max": [
        23
      ],
      "min": [
        0
      ],
      "type": "SCALAR"
    },
    {
      "bufferView": 3,
      "byteOffset": 531192,
      "componentType": 5126,
      "count": 240,
      "max": [
        0.33317947387695312,
        9.5722312927246094,
        3.0072364807128906
      ],
      "min": [
        -52.591606140136719,
        5.4052696228027344,
        -3.4367361068725586
      ],
      "type": "VEC3"
    },
    {
      "bufferView": 3,
      "byteOffset": 534072,
      "componentType": 5126,
      "count": 240,
      "max": [
        0.99690508842468262,
        0.98795384168624878,
        0.94394451379776001
      ],
      "min": [
        -0.99690502882003784,
        -0.98897284269332886,
        -0.81663614511489868
      ],
      "type": "VEC3"
    },
    {
      "bufferView": 2,
      "byteOffset": 177064,
      "componentType": 5126,
      "count": 240,
      "max": [
        0.93716269731521606,
        0.99831366539001465
      ],
      "min": [
        0.0015830008778721094,
        0.001638332731090486
      ],
      "type": "VEC2"
    },
    {
      "bufferView": 1,
      "byteOffset": 231000,
      "componentType": 5125,
      "count": 744,
      "max": [
        239
      ],
      "min": [
        0
      ],
      "type": "SCALAR"
    },
    {
      "bufferView": 3,
      "byteOffset": 536952,
      "componentType": 5126,
      "count": 614,
      "max": [
        2.6832122802734375,
        3.6578483581542969,
        7.2617034912109375
      ],
      "min": [
        -2.6832122802734375,
        2.0541629791259766,
        6.1163625717163086
      ],
      "type": "VEC3"
    },
    {
      "bufferView": 3,
      "byteOffset": 544320,
      "componentType": 5126,
      "count": 614,
      "max": [
        0.57365548610687256,
        0.32798391580581665,
        0.9996788501739502
      ],
      "min": [
        -0.57365548610687256,
        -0.092281319200992584,
        0.81562256813049316
      ],
      "type": "VEC3"
    },
    {
      "bufferView": 4,
      "byteOffset": 230400,
      "componentType": 5126,
      "count": 614,
      "max": [
        0.99993127584457397,
        0.99955511093139648,
        0.57858145236968994,
        1
      ],
      "min": [
        -0.99993127584457397,
        -0.88631677627563477,
        -0.32953453063964844,
        -1
      ],
      "type": "VEC4"
    },
    {
      "bufferView": 2,
      "byteOffset": 178984,
      "componentType": 5126,
      "count": 614,
      "max": [
        9.8931522369384766,
        7.934842586517334
      ],
      "min": [
        -9.8469772338867188,
        -2.8989934921264648
      ],
      "type": "VEC2"
    },
    {
      "bufferView": 1,
      "byteOffset": 233976,
      "componentType": 5125,
      "count": 1908,
      "max": [
        613
      ],
      "min": [
        0
      ],
      "type": "SCALAR"
    },
    {
      "bufferView": 3,
      "byteOffset": 551688,
      "componentType": 5126,
      "count": 38,
      "max": [
        2.5652713775634766,
        4.7056388854980469,
        6.5523324012756348
      ],
      "min": [
        -2.9955127239227295,
        2.9776146411895752,
        -7.3339896202087402
      ],
      "type": "VEC3"
    },
    {
      "bufferView": 3,
      "byteOffset": 552144,
      "componentType": 5126,
      "count": 38,
      "max": [
        0.73612993955612183,
        0.897865891456604,
        0.78001433610916138
      ],
      "min": [
        -0.78148794174194336,
        0.017767855897545815,
        -0.99071651697158813
      ],
      "type": "VEC3"
    },
    {
      "bufferView": 4,
      "byteOffset": 240224,
      "componentType": 5126,
      "count": 38,
      "max": [
        0.78607332706451416,
        0.0074940570630133152,
        -0.02218053862452507,
        1
      ],
      "min": [
        -0.7860720157623291,
        -0.9997517466545105,
        -0.99706852436065674,
        -1
      ],
      "type": "VEC4"
    },
    {
      "bufferView": 2,
      "byteOffset": 183896,
      "componentType": 5126,
      "count": 38,
      "max": [
        0.99341553449630737,
        0.99386054277420044
      ],
      "min": [
        0.0035705920308828354,
        0.093205459415912628
      ],
      "type": "VEC2"
    },
    {
      "bufferView": 1,
      "byteOffset": 241608,
      "componentType": 5125,
      "count": 72,
      "max": [
        37
      ],
      "min": [
        0
      ],
      "type": "SCALAR"
    },
    {
      "bufferView": 3,
      "byteOffset": 552600,
      "componentType": 5126,
      "count": 1046,
      "max": [
        2.2608494758605957,
        4.7052850723266602,
        3.6002936363220215
      ],
      "min": [
        -2.1186892986297607,
        4.3910870552062988,
        2.722165584564209
      ],
      "type": "VEC3"
    },
    {
      "bufferView": 3,
      "byteOffset": 565152,
      "componentType": 5126,
      "count": 1046,
      "max": [
        0.99760794639587402,
        0.83776402473449707,
        0.84111183881759644
      ],
      "min": [
        -0.99571162462234497,
        -0.82396620512008667,
        -0.82760488986968994
      ],
      "type": "VEC3"
    },
    {
      "bufferView": 4,
      "byteOffset": 240832,
      "componentType": 5126,
      "count": 1046,
      "max": [
        0.98088610172271729,
        0.99821841716766357,
        0.92187708616256714,
        1
      ],
      "min": [
        -0.69712966680526733,
        -0.82875239849090576,
        -0.99614953994750977,
        -1
      ],
      "type": "VEC4"
    },
    {
      "bufferView": 2,
      "byteOffset": 184200,
      "componentType": 5126,
      "count": 1046,
      "max": [
        0.82757699489593506,
        0.43865698575973511
      ],
      "min": [
        0.76132601499557495,
        0.21144999563694
      ],
      "type": "VEC2"
    },
    {
      "bufferView": 1,
      "byteOffset": 241896,
      "componentType": 5125,
      "count": 1818,
      "max": [
        1045
      ],
      "min": [
        0
      ],
      "type": "SCALAR"
    },
    {
      "bufferView": 3,
      "byteOffset": 577704,
      "componentType": 5126,
      "count": 9636,
      "max": [
        3.1440286636352539,
        5.8159446716308594,
        7.2754168510437012
      ],
      "min": [
        -3.1440286636352539,
        1.8664627075195312,
        -7.3845276832580566
      ],
      "type": "VEC3"
    },
    {
      "bufferView": 3,
      "byteOffset": 693336,
      "componentType": 5126,
      "count": 9636,
      "max": [
        1,
        1,
        1
      ],
      "min": [
        -1,
        -1,
        -1
      ],
      "type": "VEC3"
    },
    {
      "bufferView": 4,
      "byteOffset": 257568,
      "componentType": 5126,
      "count": 9636,
      "max": [
        1,
        1,
        1,
        1
      ],
      "min": [
        -1,
        -0.9999997615814209,
        -1,
        -1
      ],
      "type": "VEC4"
    },
    {
      "bufferView": 2,
      "byteOffset": 192568,
      "componentType": 5126,
      "count": 9636,
      "max": [
        0.99770301580429077,
        0.99703502655029297
      ],
      "min": [
        0.0034090001136064529,
        0.0051219998858869076
      ],
      "type": "VEC2"
    },
    {
      "bufferView": 1,
      "byteOffset": 249168,
      "componentType": 5125,
      "count": 25236,
      "max": [
        9635
      ],
      "min": [
        0
      ],
      "type": "SCALAR"
    },
    {
      "bufferView": 3,
      "byteOffset": 808968,
      "componentType": 5126,
      "count": 86,
      "max": [
        0.086867429316043854,
        6.0529451370239258,
        -2.0040335655212402
      ],
      "min": [
        -0.086867272853851318,
        5.9310083389282227,
        -2.2246360778808594
      ],
      "type": "VEC3"
    },
    {
      "bufferView": 3,
      "byteOffset": 810000,
      "componentType": 5126,
      "count": 86,
      "max": [
        0.98170149326324463,
        0.99981701374053955,
        0.66397976875305176
      ],
      "min": [
        -0.98170149326324463,
        -0.37502864003181458,
        -0.99998772144317627
      ],
      "type": "VEC3"
    },
    {
      "bufferView": 2,
      "byteOffset": 269656,
      "componentType": 5126,
      "count": 86,
      "max": [
        1.5714501142501831,
        0.77458477020263672
      ],
      "min": [
        1.2124396562576294,
        0.38753953576087952
      ],
      "type": "VEC2"
    },
    {
      "bufferView": 1,
      "byteOffset": 350112,
      "componentType": 5125,
      "count": 210,
      "max": [
        85
      ],
      "min": [
        0
      ],
      "type": "SCALAR"
    },
    {
      "bufferView": 3,
      "byteOffset": 811032,
      "componentType": 5126,
      "count": 345,
      "max": [
        1.7293115854263306,
        4.6589250564575195,
        7.2031245231628418
      ],
      "min": [
        -1.7293115854263306,
        2.297633171081543,
        -6.5941925048828125
      ],
      "type": "VEC3"
    },
    {
      "bufferView": 3,
      "byteOffset": 815172,
      "componentType": 5126,
      "count": 345,
      "max": [
        0.99805516004562378,
        1,
        0.99136549234390259
      ],
      "min": [
        -0.998055100440979,
        -1,
        -0.99005997180938721
      ],
      "type": "VEC3"
    },
    {
      "bufferView": 4,
      "byteOffset": 411744,
      "componentType": 5126,
      "count": 345,
      "max": [
        0.99996525049209595,
        0.99897736310958862,
        1,
        1
      ],
      "min": [
        -0.99996525049209595,
        -0.99005991220474243,
        -1,
        -1
      ],
      "type": "VEC4"
    },
    {
      "bufferView": 2,
      "byteOffset": 270344,
      "componentType": 5126,
      "count": 345,
      "max": [
        0.85336309671401978,
        0.28568410873413086
      ],
      "min": [
        0.8361247181892395,
        0.23205955326557159
      ],
      "type": "VEC2"
    },
    {
      "bufferView": 1,
      "byteOffset": 350952,
      "componentType": 5125,
      "count": 798,
      "max": [
        344
      ],
      "min": [
        0
      ],
      "type": "SCALAR"
    },
    {
      "bufferView": 3,
      "byteOffset": 819312,
      "componentType": 5126,
      "count": 4,
      "max": [
        1.4289497137069702,
        0.3320651650428772,
        0.30028539896011353
      ],
      "min": [
        -1.2217597961425781,
        -0.60712498426437378,
        0.28186017274856567
      ],
      "type": "VEC3"
    },
    {
      "bufferView": 3,
      "byteOffset": 819360,
      "componentType": 5126,
      "count": 4,
      "max": [
        0,
        -0.019614432007074356,
        -0.99980765581130981
      ],
      "min": [
        0,
        -0.019614432007074356,
        -0.99980765581130981
      ],
      "type": "VEC3"
    },
    {
      "bufferView": 4,
      "byteOffset": 417264,
      "componentType": 5126,
      "count": 4,
      "max": [
        0,
        0.99980765581130981,
        -0.019614433869719505,
        1
      ],
      "min": [
        -2.3364528090041858e-07,
        0.99980765581130981,
        -0.019614435732364655,
        1
      ],
      "type": "VEC4"
    },
    {
      "bufferView": 2,
      "byteOffset": 273104,
      "componentType": 5126,
      "count": 4,
      "max": [
        0.6370617151260376,
        0.68118536472320557
      ],
      "min": [
        0.52311360836029053,
        0.32125523686408997
      ],
      "type": "VEC2"
    },
    {
      "bufferView": 1,
      "byteOffset": 354144,
      "componentType": 5125,
      "count": 6,
      "max": [
        3
      ],
      "min": [
        0
      ],
      "type": "SCALAR"
    },
    {
      "bufferView": 3,
      "byteOffset": 819408,
      "componentType": 5126,
      "count": 72,
      "max": [
        0.23311209678649902,
        0.14856702089309692,
        0.27635610103607178
      ],
      "min": [
        -0.68569827079772949,
        0.089176297187805176,
        0.20244204998016357
      ],
      "type": "VEC3"
    },
    {
      "bufferView": 3,
      "byteOffset": 820272,
      "componentType": 5126,
      "count": 72,
      "max": [
        0.96463304758071899,
        0.35273909568786621,
        0.83994019031524658
      ],
      "min": [
        -0.96463304758071899,
        0.0064279991202056408,
        -0.93807888031005859
      ],
      "type": "VEC3"
    },
    {
      "bufferView": 4,
      "byteOffset": 417328,
      "componentType": 5126,
      "count": 72,
      "max": [
        0.88548582792282104,
        0.016969632357358932,
        -0.0015760245732963085,
        1
      ],
      "min": [
        -0.88548576831817627,
        -0.99997913837432861,
        -0.99996519088745117,
        -1
      ],
      "type": "VEC4"
    },
    {
      "bufferView": 2,
      "byteOffset": 273136,
      "componentType": 5126,
      "count": 72,
      "max": [
        0.98320990800857544,
        0.48604738712310791
      ],
      "min": [
        0.019485434517264366,
        0.0048467516899108887
      ],
      "type": "VEC2"
    },
    {
      "bufferView": 1,
      "byteOffset": 354168,
      "componentType": 5125,
      "count": 192,
      "max": [
        71
      ],
      "min": [
        0
      ],
      "type": "SCALAR"
    },
    {
      "bufferView": 3,
      "byteOffset": 821136,
      "componentType": 5126,
      "count": 1362,
      "max": [
        0.23334211111068726,
        0.15051519870758057,
        0.28488799929618835
      ],
      "min": [
        -0.6859283447265625,
        0.05299001932144165,
        0.2014850378036499
      ],
      "type": "VEC3"
    },
    {
      "bufferView": 3,
      "byteOffset": 837480,
      "componentType": 5126,
      "count": 1362,
      "max": [
        0.99999880790710449,
        1,
        0.9922143816947937
      ],
      "min": [
        -0.99999880790710449,
        -1,
        -0.99334442615509033
      ],
      "type": "VEC3"
    },
    {
      "bufferView": 2,
      "byteOffset": 273712,
      "componentType": 5126,
      "count": 1362,
      "max": [
        -3.1165308952331543,
        3.9020147323608398
      ],
      "min": [
        -8.3039798736572266,
        -2.2788798809051514
      ],
      "type": "VEC2"
    },
    {
      "bufferView": 1,
      "byteOffset": 354936,
      "componentType": 5125,
      "count": 3720,
      "max": [
        1361
      ],
      "min": [
        0
      ],
      "type": "SCALAR"
    },
    {
      "bufferView": 3,
      "byteOffset": 853824,
      "componentType": 5126,
      "count": 46,
      "max": [
        0.23251709342002869,
        0.1226881742477417,
        0.27527812123298645
      ],
      "min": [
        -0.68510329723358154,
        0.1165890097618103,
        0.20250199735164642
      ],
      "type": "VEC3"
    },
    {
      "bufferView": 3,
      "byteOffset": 854376,
      "componentType": 5126,
      "count": 46,
      "max": [
        0.96121221780776978,
        0.36880102753639221,
        0.83348613977432251
      ],
      "min": [
        -0.96121227741241455,
        0.22652406990528107,
        -0.051521021872758865
      ],
      "type": "VEC3"
    },
    {
      "bufferView": 4,
      "byteOffset": 418480,
      "componentType": 5126,
      "count": 46,
      "max": [
        0.43277168273925781,
        0.96254229545593262,
        0.0078614791855216026,
        1
      ],
      "min": [
        -0.37941184639930725,
        0.74282413721084595,
        -0.52059799432754517,
        -1
      ],
      "type": "VEC4"
    },
    {
      "bufferView": 2,
      "byteOffset": 284608,
      "componentType": 5126,
      "count": 46,
      "max": [
        0.94165575504302979,
        0.99417608976364136
      ],
      "min": [
        0.93364250659942627,
        0.96401506662368774
      ],
      "type": "VEC2"
    },
    {
      "bufferView": 1,
      "byteOffset": 369816,
      "componentType": 5125,
      "count": 114,
      "max": [
        45
      ],
      "min": [
        0
      ],
      "type": "SCALAR"
    },
    {
      "bufferView": 3,
      "byteOffset": 854928,
      "componentType": 5126,
      "count": 7106,
      "max": [
        3.1584248542785645,
        29.59698486328125,
        5.3237833976745605
      ],
      "min": [
        -3.1524648666381836,
        27.329833984375,
        3.0464973449707031
      ],
      "type": "VEC3"
    },
    {
      "bufferView": 3,
      "byteOffset": 940200,
      "componentType": 5126,
      "count": 7106,
      "max": [
        1,
        0.99996829032897949,
        0.99978059530258179
      ],
      "min": [
        -1,
        -0.99997258186340332,
        -1
      ],
      "type": "VEC3"
    },
    {
      "bufferView": 4,
      "byteOffset": 419216,
      "componentType": 5126,
      "count": 7106,
      "max": [
        1,
        1,
        0.99999958276748657,
        1
      ],
      "min": [
        -1,
        -1,
        -0.99999958276748657,
        -1
      ],
      "type": "VEC4"
    },
    {
      "bufferView": 2,
      "byteOffset": 284976,
      "componentType": 5126,
      "count": 7106,
      "max": [
        0.99640393257141113,
        0.99475294351577759
      ],
      "min": [
        0.0025050640106201172,
        0.0035047233104705811
      ],
      "type": "VEC2"
    },
    {
      "bufferView": 1,
      "byteOffset": 370272,
      "componentType": 5125,
      "count": 19518,
      "max": [
        7105
      ],
      "min": [
        0
      ],
      "type": "SCALAR"
    },
    {
      "bufferView": 3,
      "byteOffset": 1025472,
      "componentType": 5126,
      "count": 516,
      "max": [
        3.1440777778625488,
        29.657821655273438,
        5.380134105682373
      ],
      "min": [
        -3.138117790222168,
        27.26899528503418,
        2.9901518821716309
      ],
      "type": "VEC3"
    },
    {
      "bufferView": 3,
      "byteOffset": 1031664,
      "componentType": 5126,
      "count": 516,
      "max": [
        0.88063544034957886,
        1,
        0.9972042441368103
      ],
      "min": [
        -0.88063544034957886,
        -1,
        -0.99720394611358643
      ],
      "type": "VEC3"
    },
    {
      "bufferView": 2,
      "byteOffset": 341824,
      "componentType": 5126,
      "count": 516,
      "max": [
        0.96660012006759644,
        4.2429399490356445
      ],
      "min": [
        0.0066528879106044769,
        -1.544946551322937
      ],
      "type": "VEC2"
    },
    {
      "bufferView": 1,
      "byteOffset": 448344,
      "componentType": 5125,
      "count": 2016,
      "max": [
        515
      ],
      "min": [
        0
      ],
      "type": "SCALAR"
    },
    {
      "bufferView": 3,
      "byteOffset": 1037856,
      "componentType": 5126,
      "count": 102,
      "max": [
        2.6461420059204102,
        -1.1932358741760254,
        -6.2227377891540527
      ],
      "min": [
        -2.6461420059204102,
        -1.8598809242248535,
        -7.3553376197814941
      ],
      "type": "VEC3"
    },
    {
      "bufferView": 3,
      "byteOffset": 1039080,
      "componentType": 5126,
      "count": 102,
      "max": [
        0.71697187423706055,
        0.477521151304245,
        -0.67120182514190674
      ],
      "min": [
        -0.71697187423706055,
        -0.41419303417205811,
        -0.99447816610336304
      ],
      "type": "VEC3"
    },
    {
      "bufferView": 4,
      "byteOffset": 532912,
      "componentType": 5126,
      "count": 102,
      "max": [
        -0.68259912729263306,
        0.046173766255378723,
        0.73077011108398438,
        -1
      ],
      "min": [
        -0.99928057193756104,
        -0.046173766255378723,
        -0.73077011108398438,
        -1
      ],
      "type": "VEC4"
    },
    {
      "bufferView": 2,
      "byteOffset": 345952,
      "componentType": 5126,
      "count": 102,
      "max": [
        8.1081352233886719,
        3.7321717739105225
      ],
      "min": [
        -7.7553062438964844,
        -2.8057615756988525
      ],
      "type": "VEC2"
    },
    {
      "bufferView": 1,
      "byteOffset": 456408,
      "componentType": 5125,
      "count": 306,
      "max": [
        101
      ],
      "min": [
        0
      ],
      "type": "SCALAR"
    },
    {
      "bufferView": 3,
      "byteOffset": 1040304,
      "componentType": 5126,
      "count": 102,
      "max": [
        2.6461420059204102,
        -1.1932358741760254,
        -6.2227377891540527
      ],
      "min": [
        -2.6461420059204102,
        -1.8598809242248535,
        -7.3553376197814941
      ],
      "type": "VEC3"
    },
    {
      "bufferView": 3,
      "byteOffset": 1041528,
      "componentType": 5126,
      "count": 102,
      "max": [
        0.71697187423706055,
        0.477521151304245,
        -0.67120182514190674
      ],
      "min": [
        -0.71697187423706055,
        -0.41419303417205811,
        -0.99447816610336304
      ],
      "type": "VEC3"
    },
    {
      "bufferView": 4,
      "byteOffset": 534544,
      "componentType": 5126,
      "count": 102,
      "max": [
        -0.68259912729263306,
        0.046173766255378723,
        0.73077011108398438,
        -1
      ],
      "min": [
        -0.99928057193756104,
        -0.046173766255378723,
        -0.73077011108398438,
        -1
      ],
      "type": "VEC4"
    },
    {
      "bufferView": 2,
      "byteOffset": 346768,
      "componentType": 5126,
      "count": 102,
      "max": [
        8.1081352233886719,
        3.7321717739105225
      ],
      "min": [
        -7.7553062438964844,
        -2.8057615756988525
      ],
      "type": "VEC2"
    },
    {
      "bufferView": 1,
      "byteOffset": 457632,
      "componentType": 5125,
      "count": 306,
      "max": [
        101
      ],
      "min": [
        0
      ],
      "type": "SCALAR"
    },
    {
      "bufferView": 3,
      "byteOffset": 1042752,
      "componentType": 5126,
      "count": 144,
      "max": [
        0.5000762939453125,
        0.5,
        0.8634876012802124
      ],
      "min": [
        -378.76739501953125,
        -0.5,
        -0.067271828651428223
      ],
      "type": "VEC3"
    },
    {
      "bufferView": 3,
      "byteOffset": 1044480,
      "componentType": 5126,
      "count": 144,
      "max": [
        1,
        0.99788898229598999,
        0.99971365928649902
      ],
      "min": [
        -1,
        -0.99789196252822876,
        -0.9997137188911438
      ],
      "type": "VEC3"
    },
    {
      "bufferView": 4,
      "byteOffset": 536176,
      "componentType": 5126,
      "count": 144,
      "max": [
        6.0432676929084855e-14,
        0.9997137188911438,
        1,
        1
      ],
      "min": [
        -7.0939131305292058e-14,
        -0.9997137188911438,
        -1,
        1
      ],
      "type": "VEC4"
    },
    {
      "bufferView": 2,
      "byteOffset": 347584,
      "componentType": 5126,
      "count": 144,
      "max": [
        0.046932995319366455,
        0.14944565296173096
      ],
      "min": [
        0.010171879082918167,
        0.10947035253047943
      ],
      "type": "VEC2"
    },
    {
      "bufferView": 1,
      "byteOffset": 458856,
      "componentType": 5125,
      "count": 360,
      "max": [
        143
      ],
      "min": [
        0
      ],
      "type": "SCALAR"
    },
    {
      "bufferView": 3,
      "byteOffset": 1046208,
      "componentType": 5126,
      "count": 144,
      "max": [
        0.5000762939453125,
        0.499908447265625,
        0.76230847835540771
      ],
      "min": [
        -378.76739501953125,
        -0.50006103515625,
        -0.067271828651428223
      ],
      "type": "VEC3"
    },
    {
      "bufferView": 3,
      "byteOffset": 1047936,
      "componentType": 5126,
      "count": 144,
      "max": [
        1,
        0.99725878238677979,
        0.99971365928649902
      ],
      "min": [
        -1,
        -0.99726265668869019,
        -0.99971365928649902
      ],
      "type": "VEC3"
    },
    {
      "bufferView": 4,
      "byteOffset": 538480,
      "componentType": 5126,
      "count": 144,
      "max": [
        1.7243849577408543e-12,
        0.9997137188911438,
        1,
        1
      ],
      "min": [
        -6.364545934549326e-13,
        -0.9997137188911438,
        -1,
        1
      ],
      "type": "VEC4"
    },
    {
      "bufferView": 2,
      "byteOffset": 348736,
      "componentType": 5126,
      "count": 144,
      "max": [
        0.050152599811553955,
        0.143379807472229
      ],
      "min": [
        0.010177299380302429,
        0.10946010053157806
      ],
      "type": "VEC2"
    },
    {
      "bufferView": 1,
      "byteOffset": 460296,
      "componentType": 5125,
      "count": 360,
      "max": [
        143
      ],
      "min": [
        0
      ],
      "type": "SCALAR"
    },
    {
      "bufferView": 3,
      "byteOffset": 1049664,
      "componentType": 5126,
      "count": 488,
      "max": [
        0.027702586725354195,
        0.020667281001806259,
        0.03321462869644165
      ],
      "min": [
        -3.0700008869171143,
        -0.020666871219873428,
        -0.0332145094871521
      ],
      "type": "VEC3"
    },
    {
      "bufferView": 3,
      "byteOffset": 1055520,
      "componentType": 5126,
      "count": 488,
      "max": [
        1,
        1,
        1
      ],
      "min": [
        -1,
        -1,
        -1
      ],
      "type": "VEC3"
    },
    {
      "bufferView": 4,
      "byteOffset": 540784,
      "componentType": 5126,
      "count": 488,
      "max": [
        1,
        1,
        1,
        1
      ],
      "min": [
        -0.00012529954256024212,
        -1,
        -1,
        1
      ],
      "type": "VEC4"
    },
    {
      "bufferView": 2,
      "byteOffset": 349888,
      "componentType": 5126,
      "count": 488,
      "max": [
        0.047923147678375244,
        0.14944565296173096
      ],
      "min": [
        0.010173540562391281,
        0.10947035253047943
      ],
      "type": "VEC2"
    },
    {
      "bufferView": 1,
      "byteOffset": 461736,
      "componentType": 5125,
      "count": 1212,
      "max": [
        487
      ],
      "min": [
        0
      ],
      "type": "SCALAR"
    },
    {
      "bufferView": 3,
      "byteOffset": 1061376,
      "componentType": 5126,
      "count": 290,
      "max": [
        0.32303023338317871,
        0.14463901519775391,
        0.35906124114990234
      ],
      "min": [
        -3.3734033107757568,
        -0.060170650482177734,
        -0.3818359375
      ],
      "type": "VEC3"
    },
    {
      "bufferView": 3,
      "byteOffset": 1064856,
      "componentType": 5126,
      "count": 290,
      "max": [
        0.99783742427825928,
        0.96565502882003784,
        0.99840980768203735
      ],
      "min": [
        -0.99783730506896973,
        -0.99869692325592041,
        -0.98559737205505371
      ],
      "type": "VEC3"
    },
    {
      "bufferView": 2,
      "byteOffset": 353792,
      "componentType": 5126,
      "count": 290,
      "max": [
        1,
        1.4858032464981079
      ],
      "min": [
        -0.9550480842590332,
        -0.3307802677154541
      ],
      "type": "VEC2"
    },
    {
      "bufferView": 1,
      "byteOffset": 466584,
      "componentType": 5125,
      "count": 732,
      "max": [
        289
      ],
      "min": [
        0
      ],
      "type": "SCALAR"
    },
    {
      "bufferView": 3,
      "byteOffset": 1068336,
      "componentType": 5126,
      "count": 6593,
      "max": [
        25.114553451538086,
        16.434049606323242,
        11.581358909606934
      ],
      "min": [
        -16.601617813110352,
        0.91723251342773438,
        -13.227766036987305
      ],
      "type": "VEC3"
    },
    {
      "bufferView": 3,
      "byteOffset": 1147452,
      "componentType": 5126,
      "count": 6593,
      "max": [
        1,
        1,
        1
      ],
      "min": [
        -1,
        -1,
        -1
      ],
      "type": "VEC3"
    },
    {
      "bufferView": 4,
      "byteOffset": 548592,
      "componentType": 5126,
      "count": 6593,
      "max": [
        1,
        1,
        1,
        1
      ],
      "min": [
        -1,
        -1,
        -1,
        -1
      ],
      "type": "VEC4"
    },
    {
      "bufferView": 2,
      "byteOffset": 356112,
      "componentType": 5126,
      "count": 6593,
      "max": [
        0.99403488636016846,
        0.99416244029998779
      ],
      "min": [
        0.0045845694839954376,
        0.0089174211025238037
      ],
      "type": "VEC2"
    },
    {
      "bufferView": 1,
      "byteOffset": 469512,
      "componentType": 5125,
      "count": 24294,
      "max": [
        6592
      ],
      "min": [
        0
      ],
      "type": "SCALAR"
    },
    {
      "bufferView": 3,
      "byteOffset": 1226568,
      "componentType": 5126,
      "count": 68,
      "max": [
        1.7328230142593384,
        0.75043946504592896,
        3.3429584503173828
      ],
      "min": [
        -0.28236699104309082,
        -0.14017792046070099,
        3.063732385635376
      ],
      "type": "VEC3"
    },
    {
      "bufferView": 3,
      "byteOffset": 1227384,
      "componentType": 5126,
      "count": 68,
      "max": [
        0.0040730014443397522,
        0.46158701181411743,
        -0.88709497451782227
      ],
      "min": [
        -0.00072899978840723634,
        0.32262787222862244,
        -0.94652563333511353
      ],
      "type": "VEC3"
    },
    {
      "bufferView": 4,
      "byteOffset": 654080,
      "componentType": 5126,
      "count": 68,
      "max": [
        1,
        4.9127098463941365e-05,
        0.00015069008804857731,
        1
      ],
      "min": [
        -8.1937405411736108e-06,
        -0.9465259313583374,
        -0.43213066458702087,
        1
      ],
      "type": "VEC4"
    },
    {
      "bufferView": 2,
      "byteOffset": 408856,
      "componentType": 5126,
      "count": 68,
      "max": [
        0.99647700786590576,
        0.99529898166656494
      ],
      "min": [
        0.0056360000744462013,
        0.004075000062584877
      ],
      "type": "VEC2"
    },
    {
      "bufferView": 1,
      "byteOffset": 566688,
      "componentType": 5125,
      "count": 180,
      "max": [
        67
      ],
      "min": [
        0
      ],
      "type": "SCALAR"
    },
    {
      "bufferView": 3,
      "byteOffset": 1228200,
      "componentType": 5126,
      "count": 390,
      "max": [
        1.4187183380126953,
        0.076110363006591797,
        6.8059754371643066
      ],
      "min": [
        -4.1122822761535645,
        -0.44181680679321289,
        5.8323450088500977
      ],
      "type": "VEC3"
    },
    {
      "bufferView": 3,
      "byteOffset": 1232880,
      "componentType": 5126,
      "count": 390,
      "max": [
        0.34392297267913818,
        0.34390813112258911,
        1
      ],
      "min": [
        -0.34392297267913818,
        -0.34390813112258911,
        0.93899703025817871
      ],
      "type": "VEC3"
    },
    {
      "bufferView": 4,
      "byteOffset": 655168,
      "componentType": 5126,
      "count": 390,
      "max": [
        1,
        0.043423708528280258,
        0.34368056058883667,
        1
      ],
      "min": [
        -1,
        -0.03754027932882309,
        -0.34368053078651428,
        -1
      ],
      "type": "VEC4"
    },
    {
      "bufferView": 2,
      "byteOffset": 409400,
      "componentType": 5126,
      "count": 390,
      "max": [
        0.9533039927482605,
        0.99727398157119751
      ],
      "min": [
        0.92199897766113281,
        0.96607601642608643
      ],
      "type": "VEC2"
    },
    {
      "bufferView": 1,
      "byteOffset": 567408,
      "componentType": 5125,
      "count": 1086,
      "max": [
        389
      ],
      "min": [
        0
      ],
      "type": "SCALAR"
    },
    {
      "bufferView": 5,
      "componentType": 5126,
      "count": 4,
      "max": [
        1,
        0,
        1,
        0,
        0.9644240140914917,
        1,
        0,
        0,
        0,
        0.9644240140914917,
        1,
        0,
        0,
        5.042661190032959,
        6.4137740135192871,
        1
      ],
      "min": [
        4.9492446127979089e-17,
        -4.5044954054632575e-17,
        0,
        0,
        0,
        0.26436001062393188,
        -4.5044957363355026e-17,
        0,
        -0.58880800008773804,
        0,
        4.9492446127979089e-17,
        0,
        -7.0840401649475098,
        -4.3234138488769531,
        -1.5056699514389038,
        1
      ],
      "type": "MAT4"
    },
    {
      "bufferView": 0,
      "componentType": 5123,
      "count": 144,
      "max": [
        1,
        1,
        1,
        1
      ],
      "min": [
        1,
        1,
        1,
        1
      ],
      "type": "VEC4"
    },
    {
      "bufferView": 4,
      "byteOffset": 661408,
      "componentType": 5126,
      "count": 144,
      "max": [
        1,
        0,
        0,
        0
      ],
      "min": [
        1,
        0,
        0,
        0
      ],
      "type": "VEC4"
    },
    {
      "bufferView": 0,
      "byteOffset": 1152,
      "componentType": 5123,
      "count": 136,
      "max": [
        2,
        2,
        2,
        2
      ],
      "min": [
        2,
        2,
        2,
        2
      ],
      "type": "VEC4"
    },
    {
      "bufferView": 4,
      "byteOffset": 663712,
      "componentType": 5126,
      "count": 136,
      "max": [
        1,
        0,
        0,
        0
      ],
      "min": [
        1,
        0,
        0,
        0
      ],
      "type": "VEC4"
    },
    {
      "bufferView": 6,
      "componentType": 5126,
      "count": 147,
      "max": [
        6.4583334922790527
      ],
      "min": [
        0
      ],
      "type": "SCALAR"
    },
    {
      "bufferView": 8,
      "componentType": 5126,
      "count": 147,
      "max": [
        -0.067468911409378052,
        -0,
        0,
        0.99772137403488159
      ],
      "min": [
        -0.66133731603622437,
        -0,
        0,
        0.75008863210678101
      ],
      "type": "VEC4"
    },
    {
      "bufferView": 6,
      "byteOffset": 588,
      "componentType": 5126,
      "count": 147,
      "max": [
        6.4583334922790527
      ],
      "min": [
        0
      ],
      "type": "SCALAR"
    },
    {
      "bufferView": 8,
      "byteOffset": 2352,
      "componentType": 5126,
      "count": 147,
      "max": [
        -0.067468911409378052,
        -0,
        0,
        0.99772137403488159
      ],
      "min": [
        -0.69817548990249634,
        -0,
        0,
        0.71592670679092407
      ],
      "type": "VEC4"
    },
    {
      "bufferView": 6,
      "byteOffset": 1176,
      "componentType": 5126,
      "count": 121,
      "max": [
        6.4583334922790527
      ],
      "min": [
        0
      ],
      "type": "SCALAR"
    },
    {
      "bufferView": 7,
      "componentType": 5126,
      "count": 121,
      "max": [
        0.09242953360080719,
        8.8817841970012523e-16,
        0
      ],
      "min": [
        0.09242953360080719,
        -1.7763568394002505e-15,
        0
      ],
      "type": "VEC3"
    },
    {
      "bufferView": 6,
      "byteOffset": 1660,
      "componentType": 5126,
      "count": 147,
      "max": [
        6.4583334922790527
      ],
      "min": [
        0
      ],
      "type": "SCALAR"
    },
    {
      "bufferView": 8,
      "byteOffset": 4704,
      "componentType": 5126,
      "count": 147,
      "max": [
        2.2710809466643776e-32,
        2.801984741752808e-32,
        0.91104614734649658,
        0.99999868869781494
      ],
      "min": [
        -3.3942440522295831e-32,
        -5.8379422300819857e-32,
        -0.86590009927749634,
        -0.4931163489818573
      ],
      "type": "VEC4"
    },
    {
      "bufferView": 6,
      "byteOffset": 2248,
      "componentType": 5126,
      "count": 147,
      "max": [
        6.4583334922790527
      ],
      "min": [
        0
      ],
      "type": "SCALAR"
    },
    {
      "bufferView": 8,
      "byteOffset": 7056,
      "componentType": 5126,
      "count": 147,
      "max": [
        0.70708900690078735,
        0.63019943237304688,
        0.70708900690078735,
        0.63019943237304688
      ],
      "min": [
        0.32070028781890869,
        -0.25801736116409302,
        0.32070028781890869,
        -0.25801736116409302
      ],
      "type": "VEC4"
    },
    {
      "bufferView": 6,
      "byteOffset": 2836,
      "componentType": 5126,
      "count": 147,
      "max": [
        6.4583334922790527
      ],
      "min": [
        0
      ],
      "type": "SCALAR"
    },
    {
      "bufferView": 7,
      "byteOffset": 1452,
      "componentType": 5126,
      "count": 147,
      "max": [
        1.5251865386962891,
        4.3368725776672363,
        -6.2297019958496094
      ],
      "min": [
        1.5251865386962891,
        4.2032914161682129,
        -6.3541402816772461
      ],
      "type": "VEC3"
    },
    {
      "bufferView": 6,
      "byteOffset": 3424,
      "componentType": 5126,
      "count": 147,
      "max": [
        6.4583334922790527
      ],
      "min": [
        0
      ],
      "type": "SCALAR"
    },
    {
      "bufferView": 8,
      "byteOffset": 9408,
      "componentType": 5126,
      "count": 147,
      "max": [
        0.20359082520008087,
        0,
        0,
        1
      ],
      "min": [
        0,
        0,
        0,
        0.97905606031417847
      ],
      "type": "VEC4"
    },
    {
      "bufferView": 6,
      "byteOffset": 4012,
      "componentType": 5126,
      "count": 157,
      "max": [
        6.4583334922790527
      ],
      "min": [
        0
      ],
      "type": "SCALAR"
    },
    {
      "bufferView": 7,
      "byteOffset": 3216,
      "componentType": 5126,
      "count": 157,
      "max": [
        0.021036982536315918,
        3.6662979125976562,
        -1.2871459722518921
      ],
      "min": [
        0.021036982536315918,
        3.6662979125976562,
        -1.3011167049407959
      ],
      "type": "VEC3"
    },
    {
      "bufferView": 6,
      "byteOffset": 4640,
      "componentType": 5126,
      "count": 9,
      "max": [
        6.4583334922790527
      ],
      "min": [
        0
      ],
      "type": "SCALAR"
    },
    {
      "bufferView": 7,
      "byteOffset": 5100,
      "componentType": 5126,
      "count": 9,
      "max": [
        1.3467819690704346,
        3.5152678489685059,
        -0.027512386441230774
      ],
      "min": [
        1.3467819690704346,
        3.5152678489685059,
        -0.19067507982254028
      ],
      "type": "VEC3"
    }
  ],
  "animations": [
    {
      "channels": [
        {
          "sampler": 0,
          "target": {
            "node": 61,
            "path": "rotation"
          }
        },
        {
          "sampler": 1,
          "target": {
            "node": 63,
            "path": "rotation"
          }
        },
        {
          "sampler": 2,
          "target": {
            "node": 12,
            "path": "translation"
          }
        },
        {
          "sampler": 3,
          "target": {
            "node": 12,
            "path": "rotation"
          }
        },
        {
          "sampler": 4,
          "target": {
            "node": 11,
            "path": "rotation"
          }
        },
        {
          "sampler": 5,
          "target": {
            "node": 69,
            "path": "translation"
          }
        },
        {
          "sampler": 6,
          "target": {
            "node": 69,
            "path": "rotation"
          }
        },
        {
          "sampler": 7,
          "target": {
            "node": 77,
            "path": "translation"
          }
        },
        {
          "sampler": 8,
          "target": {
            "node": 79,
            "path": "translation"
          }
        }
      ],
      "name": "Audi TT final7 (Animation) ",
      "samplers": [
        {
          "input": 162,
          "interpolation": "LINEAR",
          "output": 163
        },
        {
          "input": 164,
          "interpolation": "LINEAR",
          "output": 165
        },
        {
          "input": 166,
          "interpolation": "LINEAR",
          "output": 167
        },
        {
          "input": 168,
          "interpolation": "LINEAR",
          "output": 169
        },
        {
          "input": 170,
          "interpolation": "LINEAR",
          "output": 171
        },
        {
          "input": 172,
          "interpolation": "LINEAR",
          "output": 173
        },
        {
          "input": 174,
          "interpolation": "LINEAR",
          "output": 175
        },
        {
          "input": 176,
          "interpolation": "LINEAR",
          "output": 177
        },
        {
          "input": 178,
          "interpolation": "LINEAR",
          "output": 179
        }
      ]
    }
  ],
  "asset": {
    "extras": {
      "author": "TGRRRR (https://sketchfab.com/Tgrrrr)",
      "license": "CC-BY-4.0 (http://creativecommons.org/licenses/by/4.0/)",
      "source": "https://sketchfab.com/3d-models/audi-tt-rs-2013-low-poly-94a30eec8f2b4ec6bf8c570ee80123e0",
      "title": "AUDI TT RS 2013 [low-poly]"
    },
    "generator": "Sketchfab-8.87.0",
    "version": "2.0"
  },
  "bufferViews": [
    {
      "buffer": 0,
      "byteLength": 2240,
      "byteOffset": 0,
      "byteStride": 8,
      "name": "shortBufferViews",
      "target": 34962
    },
    {
      "buffer": 0,
      "byteLength": 571752,
      "byteOffset": 2240,
      "name": "floatBufferViews",
      "target": 34963
    },
    {
      "buffer": 0,
      "byteLength": 412520,
      "byteOffset": 573992,
      "byteStride": 8,
      "name": "floatBufferViews",
      "target": 34962
    },
    {
      "buffer": 0,
      "byteLength": 1237560,
      "byteOffset": 986512,
      "byteStride": 12,
      "name": "floatBufferViews",
      "target": 34962
    },
    {
      "buffer": 0,
      "byteLength": 665888,
      "byteOffset": 2224072,
      "byteStride": 16,
      "name": "floatBufferViews",
      "target": 34962
    },
    {
      "buffer": 0,
      "byteLength": 256,
      "byteOffset": 2889960,
      "byteStride": 64,
      "name": "floatBufferViews"
    },
    {
      "buffer": 0,
      "byteLength": 4676,
      "byteOffset": 2890216,
      "name": "floatBufferViews"
    },
    {
      "buffer": 0,
      "byteLength": 5208,
      "byteOffset": 2894892,
      "byteStride": 12,
      "name": "floatBufferViews"
    },
    {
      "buffer": 0,
      "byteLength": 11760,
      "byteOffset": 2900100,
      "byteStride": 16,
      "name": "floatBufferViews"
    }
  ],
  "buffers": [
    {
      "byteLength": 2911860,
      "uri": "scene.bin"
    }
  ],
  "images": [
    {
      "uri": "textures/Audi_TT_final6__Animation_details_baseColor.png"
    },
    {
      "uri": "textures/Audi_TT_final6__Animation_details_metallicRoughness.png"
    },
    {
      "uri": "textures/Audi_TT_final6__Animation_details_emissive.jpeg"
    },
    {
      "uri": "textures/Audi_TT_final6__Animation_details_normal.png"
    },
    {
      "uri": "textures/Audi_TT_final6__Animation_details2_baseColor.png"
    },
    {
      "uri": "textures/Audi_TT_final6__Animation_details2_metallicRoughness.png"
    },
    {
      "uri": "textures/Audi_TT_final6__Animation_details2_normal.png"
    },
    {
      "uri": "textures/Audi_TT_final6__Animation_tirewheel_baseColor.png"
    },
    {
      "uri": "textures/Audi_TT_final6__Animation_tirewheel_metallicRoughness.png"
    },
    {
      "uri": "textures/Audi_TT_final6__Animation_tirewheel_normal.png"
    },
    {
      "uri": "textures/Audi_TT_final6__Animation_tire_baseColor.jpeg"
    },
    {
      "uri": "textures/Audi_TT_final6__Animation_tire_metallicRoughness.png"
    },
    {
      "uri": "textures/Audi_TT_final6__Animation_interier_baseColor.png"
    },
    {
      "uri": "textures/Audi_TT_final6__Animation_interier_metallicRoughness.png"
    },
    {
      "uri": "textures/Audi_TT_final6__Animation_interier_emissive.png"
    },
    {
      "uri": "textures/Audi_TT_final6__Animation_interier_normal.png"
    },
    {
      "uri": "textures/Audi_TT_final6__Animation_grid_baseColor.png"
    },
    {
      "uri": "textures/Audi_TT_final6__Animation_grid_metallicRoughness.png"
    },
    {
      "uri": "textures/Audi_TT_final6__Animation_grid_normal.png"
    },
    {
      "uri": "textures/Audi_TT_final6__Animation_scene_baseColor.png"
    },
    {
      "uri": "textures/Audi_TT_final6__Animation_scene_metallicRoughness.png"
    },
    {
      "uri": "textures/Audi_TT_final6__Animation_scene_emissive.jpeg"
    },
    {
      "uri": "textures/Audi_TT_final6__Animation_scene_normal.png"
    }
  ],
  "materials": [
    {
      "alphaMode": "BLEND",
      "doubleSided": true,
      "emissiveFactor": [
        1,
        1,
        1
      ],
      "emissiveTexture": {
        "index": 2,
        "texCoord": 0
      },
      "name": "Audi_TT_final6__Animation_details",
      "normalTexture": {
        "index": 3,
        "scale": 1,
        "texCoord": 0
      },
      "pbrMetallicRoughness": {
        "baseColorFactor": [
          1,
          1,
          1,
          1
        ],
        "baseColorTexture": {
          "index": 0,
          "texCoord": 0
        },
        "metallicFactor": 1,
        "metallicRoughnessTexture": {
          "index": 1,
          "texCoord": 0
        },
        "roughnessFactor": 1
      }
    },
    {
      "doubleSided": true,
      "name": "Audi_TT_final6__Animation_water",
      "pbrMetallicRoughness": {
        "baseColorFactor": [
          1,
          0,
          0,
          1
        ],
        "metallicFactor": 1,
        "roughnessFactor": 0.12952793734151657
      }
    },
    {
      "alphaMode": "BLEND",
      "doubleSided": true,
      "name": "Audi_TT_final6__Animation_glass",
      "pbrMetallicRoughness": {
        "baseColorFactor": [
          0,
          0,
          0,
          0.62366615849999996
        ],
        "metallicFactor": 1,
        "roughnessFactor": 0.12976371950000001
      }
    },
    {
      "alphaMode": "BLEND",
      "doubleSided": true,
      "name": "Audi_TT_final6__Animation_details2",
      "normalTexture": {
        "index": 6,
        "scale": 1,
        "texCoord": 0
      },
      "pbrMetallicRoughness": {
        "baseColorFactor": [
          1,
          1,
          1,
          1
        ],
        "baseColorTexture": {
          "index": 4,
          "texCoord": 0
        },
        "metallicFactor": 0.81396350282611274,
        "metallicRoughnessTexture": {
          "index": 5,
          "texCoord": 0
        },
        "roughnessFactor": 0.099000000000000005
      }
    },
    {
      "alphaMode": "BLEND",
      "doubleSided": true,
      "name": "Audi_TT_final6__Animation_tirewheel",
      "normalTexture": {
        "index": 9,
        "scale": 1,
        "texCoord": 0
      },
      "pbrMetallicRoughness": {
        "baseColorFactor": [
          1,
          1,
          1,
          1
        ],
        "baseColorTexture": {
          "index": 7,
          "texCoord": 0
        },
        "metallicFactor": 1,
        "metallicRoughnessTexture": {
          "index": 8,
          "texCoord": 0
        },
        "roughnessFactor": 1
      }
    },
    {
      "doubleSided": true,
      "name": "Audi_TT_final6__Animation_tire",
      "pbrMetallicRoughness": {
        "baseColorFactor": [
          1,
          1,
          1,
          1
        ],
        "baseColorTexture": {
          "index": 10,
          "texCoord": 0
        },
        "metallicFactor": 1,
        "metallicRoughnessTexture": {
          "index": 11,
          "texCoord": 0
        },
        "roughnessFactor": 1
      }
    },
    {
      "doubleSided": true,
      "emissiveFactor": [
        1,
        1,
        1
      ],
      "emissiveTexture": {
        "index": 14,
        "texCoord": 0
      },
      "name": "Audi_TT_final6__Animation_interier",
      "normalTexture": {
        "index": 15,
        "scale": 1,
        "texCoord": 0
      },
      "pbrMetallicRoughness": {
        "baseColorFactor": [
          0.45032713918974904,
          0.45032713918974904,
          0.45032713918974904,
          1
        ],
        "baseColorTexture": {
          "index": 12,
          "texCoord": 0
        },
        "metallicFactor": 1,
        "metallicRoughnessTexture": {
          "index": 13,
          "texCoord": 0
        },
        "roughnessFactor": 1
      }
    },
    {
      "alphaMode": "BLEND",
      "doubleSided": true,
      "name": "Audi_TT_final6__Animation_grid",
      "normalTexture": {
        "index": 18,
        "scale": 1,
        "texCoord": 0
      },
      "pbrMetallicRoughness": {
        "baseColorFactor": [
          0,
          0,
          0,
          1
        ],
        "baseColorTexture": {
          "index": 16,
          "texCoord": 0
        },
        "metallicFactor": 1,
        "metallicRoughnessTexture": {
          "index": 17,
          "texCoord": 0
        },
        "roughnessFactor": 1
      }
    },
    {
      "alphaMode": "BLEND",
      "doubleSided": true,
      "emissiveFactor": [
        1,
        1,
        1
      ],
      "emissiveTexture": {
        "index": 21,
        "texCoord": 0
      },
      "name": "Audi_TT_final6__Animation_scene",
      "normalTexture": {
        "index": 22,
        "scale": 1,
        "texCoord": 0
      },
      "pbrMetallicRoughness": {
        "baseColorFactor": [
          0.05032713918974905,
          0.05032713918974905,
          0.05032713918974905,
          1
        ],
        "baseColorTexture": {
          "index": 19,
          "texCoord": 0
        },
        "metallicFactor": 1,
        "metallicRoughnessTexture": {
          "index": 20,
          "texCoord": 0
        },
        "roughnessFactor": 1
      }
    }
  ],
  "meshes": [
    {
      "name": "Audi_TT_final6__Animation_:Spoiler1:pCube75_Audi_TT_final6__Animation_:details_0",
      "primitives": [
        {
          "attributes": {
            "JOINTS_0": 158,
            "NORMAL": 1,
            "POSITION": 0,
            "TANGENT": 2,
            "TEXCOORD_0": 3,
            "WEIGHTS_0": 159
          },
          "indices": 4,
          "material": 0,
          "mode": 4
        }
      ]
    },
    {
      "name": "Audi_TT_final6__Animation_:Spoiler1:pCube77_Audi_TT_final6__Animation_:details_0",
      "primitives": [
        {
          "attributes": {
            "JOINTS_0": 160,
            "NORMAL": 6,
            "POSITION": 5,
            "TANGENT": 7,
            "TEXCOORD_0": 8,
            "WEIGHTS_0": 161
          },
          "indices": 9,
          "material": 0,
          "mode": 4
        }
      ]
    },
    {
      "name": "Audi_TT_final6__Animation_:car_Audi_TT_final6__Animation_:water_0",
      "primitives": [
        {
          "attributes": {
            "NORMAL": 11,
            "POSITION": 10,
            "TEXCOORD_0": 12
          },
          "indices": 13,
          "material": 1,
          "mode": 4
        }
      ]
    },
    {
      "name": "Audi_TT_final6__Animation_:car_Audi_TT_final6__Animation_:details_0",
      "primitives": [
        {
          "attributes": {
            "NORMAL": 15,
            "POSITION": 14,
            "TANGENT": 16,
            "TEXCOORD_0": 17
          },
          "indices": 18,
          "material": 0,
          "mode": 4
        }
      ]
    },
    {
      "name": "Audi_TT_final6__Animation_:car_Audi_TT_final6__Animation_:glass_0",
      "primitives": [
        {
          "attributes": {
            "NORMAL": 20,
            "POSITION": 19,
            "TEXCOORD_0": 21
          },
          "indices": 22,
          "material": 2,
          "mode": 4
        }
      ]
    },
    {
      "name": "Audi_TT_final6__Animation_:mirror_interier_Audi_TT_final6__Animation_:details2_0",
      "primitives": [
        {
          "attributes": {
            "NORMAL": 24,
            "POSITION": 23,
            "TANGENT": 25,
            "TEXCOORD_0": 26
          },
          "indices": 27,
          "material": 3,
          "mode": 4
        }
      ]
    },
    {
      "name": "Audi_TT_final6__Animation_:Wheel_Audi_TT_final6__Animation_:tirewheel_0",
      "primitives": [
        {
          "attributes": {
            "NORMAL": 29,
            "POSITION": 28,
            "TANGENT": 30,
            "TEXCOORD_0": 31
          },
          "indices": 32,
          "material": 4,
          "mode": 4
        }
      ]
    },
    {
      "name": "Audi_TT_final6__Animation_:Wheel_Audi_TT_final6__Animation_:tire_0",
      "primitives": [
        {
          "attributes": {
            "NORMAL": 34,
            "POSITION": 33,
            "TEXCOORD_0": 35
          },
          "indices": 36,
          "material": 5,
          "mode": 4
        }
      ]
    },
    {
      "name": "Audi_TT_final6__Animation_:Interier_Audi_TT_final6__Animation_:interier_0",
      "primitives": [
        {
          "attributes": {
            "NORMAL": 38,
            "POSITION": 37,
            "TANGENT": 39,
            "TEXCOORD_0": 40
          },
          "indices": 41,
          "material": 6,
          "mode": 4
        }
      ]
    },
    {
      "name": "Audi_TT_final6__Animation_:logo_Audi_TT_final6__Animation_:tirewheel_0",
      "primitives": [
        {
          "attributes": {
            "NORMAL": 43,
            "POSITION": 42,
            "TANGENT": 44,
            "TEXCOORD_0": 45
          },
          "indices": 46,
          "material": 4,
          "mode": 4
        }
      ]
    },
    {
      "name": "Audi_TT_final6__Animation_:logo2_Audi_TT_final6__Animation_:tirewheel_0",
      "primitives": [
        {
          "attributes": {
            "NORMAL": 48,
            "POSITION": 47,
            "TANGENT": 49,
            "TEXCOORD_0": 50
          },
          "indices": 51,
          "material": 4,
          "mode": 4
        }
      ]
    },
    {
      "name": "Audi_TT_final6__Animation_:handle_Audi_TT_final6__Animation_:water_0",
      "primitives": [
        {
          "attributes": {
            "NORMAL": 53,
            "POSITION": 52,
            "TEXCOORD_0": 54
          },
          "indices": 55,
          "material": 1,
          "mode": 4
        }
      ]
    },
    {
      "name": "Audi_TT_final6__Animation_:Grid_Audi_TT_final6__Animation_:grid_0",
      "primitives": [
        {
          "attributes": {
            "NORMAL": 57,
            "POSITION": 56,
            "TANGENT": 58,
            "TEXCOORD_0": 59
          },
          "indices": 60,
          "material": 7,
          "mode": 4
        }
      ]
    },
    {
      "name": "Audi_TT_final6__Animation_:normal_details_Audi_TT_final6__Animation_:details2_0",
      "primitives": [
        {
          "attributes": {
            "NORMAL": 62,
            "POSITION": 61,
            "TANGENT": 63,
            "TEXCOORD_0": 64
          },
          "indices": 65,
          "material": 3,
          "mode": 4
        }
      ]
    },
    {
      "name": "Audi_TT_final6__Animation_:wiper_Audi_TT_final6__Animation_:details_0",
      "primitives": [
        {
          "attributes": {
            "NORMAL": 67,
            "POSITION": 66,
            "TANGENT": 68,
            "TEXCOORD_0": 69
          },
          "indices": 70,
          "material": 0,
          "mode": 4
        }
      ]
    },
    {
      "name": "Audi_TT_final6__Animation_:pCube94_Audi_TT_final6__Animation_:details_0",
      "primitives": [
        {
          "attributes": {
            "NORMAL": 72,
            "POSITION": 71,
            "TANGENT": 73,
            "TEXCOORD_0": 74
          },
          "indices": 75,
          "material": 0,
          "mode": 4
        }
      ]
    },
    {
      "name": "Audi_TT_final6__Animation_:spoiler_Audi_TT_final6__Animation_:water_0",
      "primitives": [
        {
          "attributes": {
            "NORMAL": 77,
            "POSITION": 76,
            "TEXCOORD_0": 78
          },
          "indices": 79,
          "material": 1,
          "mode": 4
        }
      ]
    },
    {
      "name": "Audi_TT_final6__Animation_:spoiler_Audi_TT_final6__Animation_:details_0",
      "primitives": [
        {
          "attributes": {
            "NORMAL": 81,
            "POSITION": 80,
            "TANGENT": 82,
            "TEXCOORD_0": 83
          },
          "indices": 84,
          "material": 0,
          "mode": 4
        }
      ]
    },
    {
      "name": "Audi_TT_final6__Animation_:audi_logo_Audi_TT_final6__Animation_:tirewheel_0",
      "primitives": [
        {
          "attributes": {
            "NORMAL": 86,
            "POSITION": 85,
            "TANGENT": 87,
            "TEXCOORD_0": 88
          },
          "indices": 89,
          "material": 4,
          "mode": 4
        }
      ]
    },
    {
      "name": "Audi_TT_final6__Animation_:mirror_Audi_TT_final6__Animation_:details2_0",
      "primitives": [
        {
          "attributes": {
            "NORMAL": 91,
            "POSITION": 90,
            "TANGENT": 92,
            "TEXCOORD_0": 93
          },
          "indices": 94,
          "material": 3,
          "mode": 4
        }
      ]
    },
    {
      "name": "Audi_TT_final6__Animation_:mirror_Audi_TT_final6__Animation_:water_0",
      "primitives": [
        {
          "attributes": {
            "NORMAL": 96,
            "POSITION": 95,
            "TEXCOORD_0": 97
          },
          "indices": 98,
          "material": 1,
          "mode": 4
        }
      ]
    },
    {
      "name": "Audi_TT_final6__Animation_:mirror_Audi_TT_final6__Animation_:details_0",
      "primitives": [
        {
          "attributes": {
            "NORMAL": 100,
            "POSITION": 99,
            "TANGENT": 101,
            "TEXCOORD_0": 102
          },
          "indices": 103,
          "material": 0,
          "mode": 4
        }
      ]
    },
    {
      "name": "Audi_TT_final6__Animation_:Wheel1_Audi_TT_final6__Animation_:tirewheel_0",
      "primitives": [
        {
          "attributes": {
            "NORMAL": 105,
            "POSITION": 104,
            "TANGENT": 106,
            "TEXCOORD_0": 107
          },
          "indices": 108,
          "material": 4,
          "mode": 4
        }
      ]
    },
    {
      "name": "Audi_TT_final6__Animation_:Wheel1_Audi_TT_final6__Animation_:tire_0",
      "primitives": [
        {
          "attributes": {
            "NORMAL": 110,
            "POSITION": 109,
            "TEXCOORD_0": 111
          },
          "indices": 112,
          "material": 5,
          "mode": 4
        }
      ]
    },
    {
      "name": "Audi_TT_final6__Animation_:pCube95_Audi_TT_final6__Animation_:grid_0",
      "primitives": [
        {
          "attributes": {
            "NORMAL": 114,
            "POSITION": 113,
            "TANGENT": 115,
            "TEXCOORD_0": 116
          },
          "indices": 117,
          "material": 7,
          "mode": 4
        }
      ]
    },
    {
      "name": "Audi_TT_final6__Animation_:pCube96_Audi_TT_final6__Animation_:grid_0",
      "primitives": [
        {
          "attributes": {
            "NORMAL": 119,
            "POSITION": 118,
            "TANGENT": 120,
            "TEXCOORD_0": 121
          },
          "indices": 122,
          "material": 7,
          "mode": 4
        }
      ]
    },
    {
      "name": "Audi_TT_final6__Animation_:Spoiler1:pCube71_Audi_TT_final6__Animation_:details_0",
      "primitives": [
        {
          "attributes": {
            "NORMAL": 124,
            "POSITION": 123,
            "TANGENT": 125,
            "TEXCOORD_0": 126
          },
          "indices": 127,
          "material": 0,
          "mode": 4
        }
      ]
    },
    {
      "name": "Audi_TT_final6__Animation_:Spoiler1:pCube72_Audi_TT_final6__Animation_:details_0",
      "primitives": [
        {
          "attributes": {
            "NORMAL": 129,
            "POSITION": 128,
            "TANGENT": 130,
            "TEXCOORD_0": 131
          },
          "indices": 132,
          "material": 0,
          "mode": 4
        }
      ]
    },
    {
      "name": "Audi_TT_final6__Animation_:Spoiler1:pCube78_Audi_TT_final6__Animation_:details_0",
      "primitives": [
        {
          "attributes": {
            "NORMAL": 134,
            "POSITION": 133,
            "TANGENT": 135,
            "TEXCOORD_0": 136
          },
          "indices": 137,
          "material": 0,
          "mode": 4
        }
      ]
    },
    {
      "name": "Audi_TT_final6__Animation_:polySurface29_Audi_TT_final6__Animation_:water_0",
      "primitives": [
        {
          "attributes": {
            "NORMAL": 139,
            "POSITION": 138,
            "TEXCOORD_0": 140
          },
          "indices": 141,
          "material": 1,
          "mode": 4
        }
      ]
    },
    {
      "name": "Audi_TT_final6__Animation_:ParkingBlock_B_06_Audi_TT_final6__Animation_:scene_0",
      "primitives": [
        {
          "attributes": {
            "NORMAL": 143,
            "POSITION": 142,
            "TANGENT": 144,
            "TEXCOORD_0": 145
          },
          "indices": 146,
          "material": 8,
          "mode": 4
        }
      ]
    },
    {
      "name": "Interier_Audi_TT_final6__Animation_:interier_0",
      "primitives": [
        {
          "attributes": {
            "NORMAL": 148,
            "POSITION": 147,
            "TANGENT": 149,
            "TEXCOORD_0": 150
          },
          "indices": 151,
          "material": 6,
          "mode": 4
        }
      ]
    },
    {
      "name": "pCube94_Audi_TT_final6__Animation_:details_0",
      "primitives": [
        {
          "attributes": {
            "NORMAL": 153,
            "POSITION": 152,
            "TANGENT": 154,
            "TEXCOORD_0": 155
          },
          "indices": 156,
          "material": 0,
          "mode": 4
        }
      ]
    }
  ],
  "nodes": [
    {
      "children": [
        1
      ],
      "name": "RootNode (gltf orientation matrix)",
      "rotation": [
        -0.70710678118654746,
        -0,
        -0,
        0.70710678118654757
      ]
    },
    {
      "children": [
        2
      ],
      "matrix": [
        0.333210289478302,
        0,
        0,
        0,
        0,
        0.333210289478302,
        0,
        0,
        0,
        0,
        0.333210289478302,
        0,
        0,
        0,
        0,
        1
      ],
      "name": "RootNode (model correction matrix)"
    },
    {
      "children": [
        3
      ],
      "matrix": [
        1,
        0,
        0,
        0,
        0,
        0,
        1,
        0,
        0,
        -1,
        0,
        0,
        0,
        0,
        0,
        1
      ],
      "name": "0842081cbe5f43d1bdb0f8aadb21f92d.fbx"
    },
    {
      "children": [
        4
      ],
      "name": ""
    },
    {
      "children": [
        5
      ],
      "name": "RootNode"
    },
    {
      "children": [
        6,
        8,
        10,
        7,
        9,
        14,
        18,
        20,
        23,
        25,
        27,
        29,
        31,
        33,
        35,
        37,
        39,
        42,
        44,
        48,
        51,
        53,
        55,
        57,
        59,
        61,
        63,
        65,
        66,
        67,
        69,
        71,
        73,
        75,
        77,
        79
      ],
      "name": ""
    },
    {
      "children": [
        11
      ],
      "name": "_rootJoint"
    },
    {
      "matrix": [
        0.0081161400000000009,
        -7.2222372914521344e-35,
        1.9259299443872359e-34,
        0,
        3.7893596346344918e-34,
        -0.01328320482873838,
        -0.020950096938386301,
        0,
        3.7612432896820742e-33,
        0.15708400922847746,
        -0.09959758544496819,
        0,
        1.5095989999999999,
        4.2192819999999989,
        -6.377050999999998,
        1
      ],
      "name": ""
    },
    {
      "mesh": 0,
      "name": "",
      "skin": 0
    },
    {
      "matrix": [
        0.0081161400000000009,
        -7.2222372914521344e-35,
        1.9259299443872359e-34,
        0,
        5.1305107139447376e-34,
        -0.0063152248961516801,
        -0.023988903976185048,
        0,
        2.7242203549449388e-33,
        0.17986899793381458,
        -0.047351607848576879,
        0,
        1.518778,
        4.3543869999999982,
        -6.4214649999999978,
        1
      ],
      "name": ""
    },
    {
      "mesh": 1,
      "name": "",
      "skin": 0
    },
    {
      "children": [
        12
      ],
      "name": "Audi_TT_final6__Animation_:Spoiler1:joint1_00",
      "rotation": [
        0.6583518385887146,
        -0.25801730155944824,
        0.6583518385887146,
        -0.25801730155944824
      ],
      "translation": [
        1.5056703090667725,
        4.1522731781005859,
        -6.3309860229492188
      ]
    },
    {
      "children": [
        13
      ],
      "name": "Audi_TT_final6__Animation_:Spoiler1:joint2_01",
      "rotation": [
        -1.2850943584202867e-32,
        -2.4334810380944445e-33,
        0.91104614734649658,
        -0.41230446100234985
      ],
      "translation": [
        0.09242953360080719,
        4.4408920985006262e-16,
        0
      ]
    },
    {
      "name": "Audi_TT_final6__Animation_:Spoiler1:joint3_02",
      "rotation": [
        -0.42884731292724609,
        -0.56221878528594971,
        -0.42884731292724609,
        0.56221878528594971
      ],
      "translation": [
        0.10106249153614044,
        0,
        0
      ]
    },
    {
      "children": [
        15,
        16,
        17
      ],
      "name": "Audi_TT_final6__Animation_:car",
      "translation": [
        0,
        -26.355716705322266,
        4.3368086899420177e-19
      ]
    },
    {
      "mesh": 2,
      "name": "Audi_TT_final6__Animation_:car_Audi_TT_final6__Animation_:water_0"
    },
    {
      "mesh": 3,
      "name": "Audi_TT_final6__Animation_:car_Audi_TT_final6__Animation_:details_0"
    },
    {
      "mesh": 4,
      "name": "Audi_TT_final6__Animation_:car_Audi_TT_final6__Animation_:glass_0"
    },
    {
      "children": [
        19
      ],
      "name": "Audi_TT_final6__Animation_:mirror_interier",
      "scale": [
        0.41983973979949951,
        0.41983973979949951,
        0.41983973979949951
      ],
      "translation": [
        -0.0007961103692650795,
        -2.2568838596343994,
        -0.14580816030502319
      ]
    },
    {
      "mesh": 5,
      "name": "Audi_TT_final6__Animation_:mirror_interier_Audi_TT_final6__Animation_:details2_0"
    },
    {
      "children": [
        21,
        22
      ],
      "name": "Audi_TT_final6__Animation_:Wheel",
      "translation": [
        -0.0029800813645124435,
        -26.358762741088867,
        0
      ]
    },
    {
      "mesh": 6,
      "name": "Audi_TT_final6__Animation_:Wheel_Audi_TT_final6__Animation_:tirewheel_0"
    },
    {
      "mesh": 7,
      "name": "Audi_TT_final6__Animation_:Wheel_Audi_TT_final6__Animation_:tire_0"
    },
    {
      "children": [
        24
      ],
      "name": "Audi_TT_final6__Animation_:Interier",
      "translation": [
        0,
        -26.358762741088867,
        0
      ]
    },
    {
      "mesh": 8,
      "name": "Audi_TT_final6__Animation_:Interier_Audi_TT_final6__Animation_:interier_0"
    },
    {
      "children": [
        26
      ],
      "name": "Audi_TT_final6__Animation_:logo",
      "rotation": [
        0.99980825185775757,
        -0.019581872969865799,
        1.1990438962268806e-18,
        -6.122059666456014e-17
      ],
      "scale": [
        -1.327913761138916,
        -1.327913761138916,
        -1.327913761138916
      ],
      "translation": [
        -0.18051207065582275,
        -1.0522007942199707,
        -16.477394104003906
      ]
    },
    {
      "mesh": 9,
      "name": "Audi_TT_final6__Animation_:logo_Audi_TT_final6__Animation_:tirewheel_0"
    },
    {
      "children": [
        28
      ],
      "name": "Audi_TT_final6__Animation_:logo2",
      "rotation": [
        -0.029342155903577805,
        -0.061277467757463455,
        -0.0018021800788119435,
        0.99768775701522827
      ],
      "translation": [
        0.84281462430953979,
        -0.41616496443748474,
        0.33584660291671753
      ]
    },
    {
      "mesh": 10,
      "name": "Audi_TT_final6__Animation_:logo2_Audi_TT_final6__Animation_:tirewheel_0"
    },
    {
      "children": [
        30
      ],
      "name": "Audi_TT_final6__Animation_:handle",
      "rotation": [
        0.00016601437528152019,
        0.0054675242863595486,
        0.030349275097250938,
        0.99952441453933716
      ],
      "scale": [
        0.11780338734388351,
        0.11780338734388351,
        0.11780338734388351
      ],
      "translation": [
        3.1259148120880127,
        3.0214965343475342,
        -1.4544532299041748
      ]
    },
    {
      "mesh": 11,
      "name": "Audi_TT_final6__Animation_:handle_Audi_TT_final6__Animation_:water_0"
    },
    {
      "children": [
        32
      ],
      "name": "Audi_TT_final6__Animation_:Grid",
      "translation": [
        0,
        -0.32380178570747375,
        -0.013818680308759212
      ]
    },
    {
      "mesh": 12,
      "name": "Audi_TT_final6__Animation_:Grid_Audi_TT_final6__Animation_:grid_0"
    },
    {
      "children": [
        34
      ],
      "name": "Audi_TT_final6__Animation_:normal_details",
      "translation": [
        0,
        -0.32259196043014526,
        0
      ]
    },
    {
      "mesh": 13,
      "name": "Audi_TT_final6__Animation_:normal_details_Audi_TT_final6__Animation_:details2_0"
    },
    {
      "children": [
        36
      ],
      "name": "Audi_TT_final6__Animation_:wiper",
      "translation": [
        0,
        -0.32380178570747375,
        0
      ]
    },
    {
      "mesh": 14,
      "name": "Audi_TT_final6__Animation_:wiper_Audi_TT_final6__Animation_:details_0"
    },
    {
      "children": [
        38
      ],
      "name": "Audi_TT_final6__Animation_:pCube94",
      "translation": [
        0,
        -0.32380178570747375,
        0
      ]
    },
    {
      "mesh": 15,
      "name": "Audi_TT_final6__Animation_:pCube94_Audi_TT_final6__Animation_:details_0"
    },
    {
      "children": [
        40,
        41
      ],
      "name": "Audi_TT_final6__Animation_:spoiler",
      "translation": [
        0,
        -0.32380178570747375,
        0
      ]
    },
    {
      "mesh": 16,
      "name": "Audi_TT_final6__Animation_:spoiler_Audi_TT_final6__Animation_:water_0"
    },
    {
      "mesh": 17,
      "name": "Audi_TT_final6__Animation_:spoiler_Audi_TT_final6__Animation_:details_0"
    },
    {
      "children": [
        43
      ],
      "name": "Audi_TT_final6__Animation_:audi_logo",
      "rotation": [
        0.17049208283424377,
        0,
        0,
        0.9853590726852417
      ],
      "scale": [
        0.12316015362739563,
        0.12316015362739563,
        0.12316015362739563
      ],
      "translation": [
        1.2768725156784058,
        4.1276931762695312,
        0.78640621900558472
      ]
    },
    {
      "mesh": 18,
      "name": "Audi_TT_final6__Animation_:audi_logo_Audi_TT_final6__Animation_:tirewheel_0"
    },
    {
      "children": [
        45,
        46,
        47
      ],
      "name": "Audi_TT_final6__Animation_:mirror",
      "scale": [
        7.4787135124206543,
        7.4787135124206543,
        7.4787135124206543
      ],
      "translation": [
        1.6923813819885254,
        3.6313953399658203,
        -0.076547384262084961
      ]
    },
    {
      "mesh": 19,
      "name": "Audi_TT_final6__Animation_:mirror_Audi_TT_final6__Animation_:details2_0"
    },
    {
      "mesh": 20,
      "name": "Audi_TT_final6__Animation_:mirror_Audi_TT_final6__Animation_:water_0"
    },
    {
      "mesh": 21,
      "name": "Audi_TT_final6__Animation_:mirror_Audi_TT_final6__Animation_:details_0"
    },
    {
      "children": [
        49,
        50
      ],
      "name": "Audi_TT_final6__Animation_:Wheel1",
      "translation": [
        -0.0029800813645124435,
        -26.358762741088867,
        -8.6931133270263672
      ]
    },
    {
      "mesh": 22,
      "name": "Audi_TT_final6__Animation_:Wheel1_Audi_TT_final6__Animation_:tirewheel_0"
    },
    {
      "mesh": 23,
      "name": "Audi_TT_final6__Animation_:Wheel1_Audi_TT_final6__Animation_:tire_0"
    },
    {
      "children": [
        52
      ],
      "name": "Audi_TT_final6__Animation_:pCube95",
      "translation": [
        0,
        3.6202740669250488,
        0.0084370123222470284
      ]
    },
    {
      "mesh": 24,
      "name": "Audi_TT_final6__Animation_:pCube95_Audi_TT_final6__Animation_:grid_0"
    },
    {
      "children": [
        54
      ],
      "name": "Audi_TT_final6__Animation_:pCube96",
      "translation": [
        0,
        3.6202740669250488,
        0.0046312902122735977
      ]
    },
    {
      "mesh": 25,
      "name": "Audi_TT_final6__Animation_:pCube96_Audi_TT_final6__Animation_:grid_0"
    },
    {
      "children": [
        56
      ],
      "name": "Audi_TT_final6__Animation_:pCube97",
      "scale": [
        43.979824066162109,
        1.3960548639297485,
        28.258638381958008
      ],
      "translation": [
        4.8748722076416016,
        0.22924163937568665,
        -4.6387414932250977
      ]
    },
    {
      "name": "Audi_TT_final6__Animation_:transform1"
    },
    {
      "children": [
        58
      ],
      "name": "Audi_TT_final6__Animation_:pCube107",
      "translation": [
        0,
        -0.76844912767410278,
        0
      ]
    },
    {
      "name": "Audi_TT_final6__Animation_:transform4"
    },
    {
      "children": [
        60
      ],
      "name": "Audi_TT_final6__Animation_:ParkingBlock_B_04",
      "translation": [
        4.3105831146240234,
        1.245020866394043,
        6.6546907424926758
      ]
    },
    {
      "name": "Audi_TT_final6__Animation_:transform3",
      "translation": [
        -4.3105831146240234,
        -1.5688226222991943,
        -6.6546907424926758
      ]
    },
    {
      "children": [
        62
      ],
      "name": "Audi_TT_final6__Animation_:Spoiler1:pCube71",
      "rotation": [
        -0.067468903958797455,
        -0,
        0,
        0.99772137403488159
      ],
      "scale": [
        0.0081161418929696083,
        0.02480628527700901,
        0.18599742650985718
      ],
      "translation": [
        1.5350356101989746,
        4.1676936149597168,
        -6.3773884773254395
      ]
    },
    {
      "mesh": 26,
      "name": "Audi_TT_final6__Animation_:Spoiler1:pCube71_Audi_TT_final6__Animation_:details_0"
    },
    {
      "children": [
        64
      ],
      "name": "Audi_TT_final6__Animation_:Spoiler1:pCube72",
      "rotation": [
        -0.067468903958797455,
        -0,
        0,
        0.99772137403488159
      ],
      "scale": [
        0.0081161418929696083,
        0.02480628527700901,
        0.18599742650985718
      ],
      "translation": [
        1.5350356101989746,
        4.1513066291809082,
        -6.3339509963989258
      ]
    },
    {
      "mesh": 27,
      "name": "Audi_TT_final6__Animation_:Spoiler1:pCube72_Audi_TT_final6__Animation_:details_0"
    },
    {
      "name": "Audi_TT_final6__Animation_:Spoiler1:pCube75",
      "rotation": [
        0.87620729207992554,
        0,
        0,
        -0.48193436861038208
      ],
      "scale": [
        0.0081161418929696083,
        0.02480628527700901,
        0.18599742650985718
      ],
      "translation": [
        1.5095992088317871,
        4.2192826271057129,
        -6.3770503997802734
      ]
    },
    {
      "name": "Audi_TT_final6__Animation_:Spoiler1:pCube77",
      "rotation": [
        -0.79201722145080566,
        0,
        0,
        0.61049890518188477
      ],
      "scale": [
        0.0081161418929696083,
        0.02480628527700901,
        0.18599742650985718
      ],
      "translation": [
        1.5187778472900391,
        4.3543868064880371,
        -6.4214649200439453
      ]
    },
    {
      "children": [
        68
      ],
      "name": "Audi_TT_final6__Animation_:Spoiler1:pCube78",
      "translation": [
        1.5211491584777832,
        4.1595268249511719,
        -6.3544650077819824
      ]
    },
    {
      "mesh": 28,
      "name": "Audi_TT_final6__Animation_:Spoiler1:pCube78_Audi_TT_final6__Animation_:details_0"
    },
    {
      "children": [
        70
      ],
      "name": "Audi_TT_final6__Animation_:polySurface29",
      "translation": [
        1.5251865386962891,
        4.2032914161682129,
        -6.2297019958496094
      ]
    },
    {
      "mesh": 29,
      "name": "Audi_TT_final6__Animation_:polySurface29_Audi_TT_final6__Animation_:water_0"
    },
    {
      "children": [
        72
      ],
      "name": "pCube2",
      "scale": [
        6.3911314010620117,
        6.3911314010620117,
        6.3911314010620117
      ],
      "translation": [
        -8.3089170455932617,
        8.6541433334350586,
        6.6437397003173828
      ]
    },
    {
      "name": "Audi_TT_final6__Animation_:transform2"
    },
    {
      "children": [
        74
      ],
      "name": "Audi_TT_final6__Animation_:ParkingBlock_B_05"
    },
    {
      "name": "Audi_TT_final6__Animation_:transform5"
    },
    {
      "children": [
        76
      ],
      "name": "Audi_TT_final6__Animation_:ParkingBlock_B_06"
    },
    {
      "mesh": 30,
      "name": "Audi_TT_final6__Animation_:ParkingBlock_B_06_Audi_TT_final6__Animation_:scene_0"
    },
    {
      "children": [
        78
      ],
      "name": "Interier",
      "translation": [
        0.021036982536315918,
        3.6662983894348145,
        -1.2879942655563354
      ]
    },
    {
      "mesh": 31,
      "name": "Interier_Audi_TT_final6__Animation_:interier_0"
    },
    {
      "children": [
        80
      ],
      "name": "pCube94",
      "translation": [
        1.3467819690704346,
        3.5152678489685059,
        -0.19067506492137909
      ]
    },
    {
      "mesh": 32,
      "name": "pCube94_Audi_TT_final6__Animation_:details_0"
    }
  ],
  "samplers": [
    {
      "magFilter": 9729,
      "minFilter": 9987,
      "wrapS": 10497,
      "wrapT": 10497
    }
  ],
  "scene": 0,
  "scenes": [
    {
      "name": "OSG_Scene",
      "nodes": [
        0
      ]
    }
  ],
  "skins": [
    {
      "inverseBindMatrices": 157,
      "joints": [
        6,
        11,
        12,
        13
      ],
      "skeleton": 6
    }
  ],
  "textures": [
    {
      "sampler": 0,
      "source": 0
    },
    {
      "sampler": 0,
      "source": 1
    },
    {
      "sampler": 0,
      "source": 2
    },
    {
      "sampler": 0,
      "source": 3
    },
    {
      "sampler": 0,
      "source": 4
    },
    {
      "sampler": 0,
      "source": 5
    },
    {
      "sampler": 0,
      "source": 6
    },
    {
      "sampler": 0,
      "source": 7
    },
    {
      "sampler": 0,
      "source": 8
    },
    {
      "sampler": 0,
      "source": 9
    },
    {
      "sampler": 0,
      "source": 10
    },
    {
      "sampler": 0,
      "source": 11
    },
    {
      "sampler": 0,
      "source": 12
    },
    {
      "sampler": 0,
      "source": 13
    },
    {
      "sampler": 0,
      "source": 14
    },
    {
      "sampler": 0,
      "source": 15
    },
    {
      "sampler": 0,
      "source": 16
    },
    {
      "sampler": 0,
      "source": 17
    },
    {
      "sampler": 0,
      "source": 18
    },
    {
      "sampler": 0,
      "source": 19
    },
    {
      "sampler": 0,
      "source": 20
    },
    {
      "sampler": 0,
      "source": 21
    },
    {
      "sampler": 0,
      "source": 22
    }
  ]
}

